<svg id="logo-ebd-login" xmlns="http://www.w3.org/2000/svg" width="191.871" height="35.681" viewBox="0 0 191.871 35.681">
  <g id="Logo_-_Branco">
    <path id="Letras" d="M6.171,20.071H18.764c0-3.012-2.507-5.368-6.02-5.368a6.6,6.6,0,0,0-6.572,5.368Zm6.974,15.6C5.118,35.676,0,30.053,0,22.73A12.7,12.7,0,0,1,12.8,9.783c6.775,0,11.743,4.717,11.743,9.887,0,4.566-3.362,4.967-4.316,4.967H6.119A7.079,7.079,0,0,0,13.4,30.459,8.276,8.276,0,0,0,18.013,29.1a3.556,3.556,0,0,1,2.158-.8,2.514,2.514,0,0,1,2.611,2.71c0,.855-.349,1.657-1.7,2.507a14.6,14.6,0,0,1-7.928,2.158ZM46.267,12.7a10.647,10.647,0,0,1,7.677-2.908c4.816,0,8.782,3.263,8.782,9.231V32.163a2.964,2.964,0,1,1-5.921,0V18.915A4.056,4.056,0,0,0,52.589,15a4.1,4.1,0,0,0-4.264,3.914V32.163a2.964,2.964,0,1,1-5.921,0V18.915A4.056,4.056,0,0,0,38.188,15a4.1,4.1,0,0,0-4.264,3.914V32.163a2.964,2.964,0,1,1-5.921,0V13.3a2.923,2.923,0,0,1,2.96-3.159A2.776,2.776,0,0,1,33.825,12.7v.052h.25a8.03,8.03,0,0,1,6.072-2.96A7.873,7.873,0,0,1,46.267,12.7Zm27.447.7h.3a9.243,9.243,0,0,1,7.526-3.612c6.672,0,11.993,4.967,11.993,12.644s-5.317,13.249-13.1,13.249c-6.974,0-12.592-4.113-12.592-11.138V3.112A2.873,2.873,0,0,1,70.753,0a2.913,2.913,0,0,1,2.96,3.112V13.4Zm0,7.928v2.861c0,4.164,2.71,6.119,6.672,6.119,5.118,0,7.224-3.263,7.224-7.625,0-5.019-2.507-7.677-6.875-7.677-4.065,0-7.026,2.257-7.026,6.322ZM116.2,32.315a8.9,8.9,0,0,1-7.474,3.362c-6.672,0-12.144-4.967-12.144-12.644s5.368-13.249,13.145-13.249c6.974,0,12.592,4.164,12.592,11.091V32.163a2.884,2.884,0,0,1-2.96,3.112,2.742,2.742,0,0,1-2.861-2.861v-.1h-.3ZM109.725,15.1c-5.066,0-7.224,3.263-7.224,7.625,0,4.967,2.507,7.677,6.875,7.677,4.113,0,7.026-2.257,7.026-6.27V21.275c0-4.216-2.71-6.171-6.672-6.171Zm17.7-11.993A2.873,2.873,0,0,1,130.335,0a2.913,2.913,0,0,1,2.96,3.112V32.163a2.884,2.884,0,0,1-2.96,3.112,2.845,2.845,0,0,1-2.909-3.112V3.112Zm29.836,20.624V21.327c0-3.791-2.531-6.011-6.166-6.289.387-.515.784-1.02,1.19-1.506a14.664,14.664,0,0,1,1.945-2,4.533,4.533,0,0,1,.562-.4,7.587,7.587,0,0,1,2.172,1.908h.3V3.112a2.964,2.964,0,1,1,5.921,0V23.835c0,7.177-5.671,11.842-12.744,11.842-7.677,0-12.994-5.671-12.994-13.249a15.375,15.375,0,0,1,.085-1.634,7.559,7.559,0,0,0,2.753,1.445,6.626,6.626,0,0,0,3.088.132v.3c0,4.367,2.158,7.625,7.276,7.625,3.914,0,6.624-2.408,6.624-6.572Zm-17.045-9.675c.751,1.653,1.553,2.059,1.8,2.129.1.028.505.132,1.086-.685.227-.321.477-.675.741-1.058h0c.93-1.327,2.073-2.965,3.267-4.443A11.51,11.51,0,0,0,140.217,14.061ZM173.5,20.071H186.1c0-3.012-2.507-5.368-6.02-5.368A6.6,6.6,0,0,0,173.5,20.071Zm6.974,15.6c-8.027,0-13.145-5.619-13.145-12.947a12.692,12.692,0,0,1,12.8-12.947c6.775,0,11.743,4.717,11.743,9.887,0,4.566-3.362,4.967-4.316,4.967h-14.1a7.079,7.079,0,0,0,7.276,5.822,8.275,8.275,0,0,0,4.618-1.355,3.556,3.556,0,0,1,2.158-.8,2.514,2.514,0,0,1,2.611,2.71c0,.855-.349,1.657-1.7,2.507a14.6,14.6,0,0,1-7.928,2.158Z" fill="#fff" fill-rule="evenodd"/>
    <path id="Seta" d="M298.169,23.319h0c1.072-1.544,2.347-3.376,3.678-4.991a18.643,18.643,0,0,1,2.507-2.587,3.171,3.171,0,0,1,1.7-.869l.028-2.512a5.507,5.507,0,0,0-3.281,1.426,21.163,21.163,0,0,0-2.88,2.951c-1.407,1.7-2.776,3.673-3.853,5.222h0c-.321.463-.619.892-.883,1.265a2.876,2.876,0,0,1-3.135,1.416c-1.091-.3-2.455-1.473-3.4-4.183l1.393-.661-5.283-3.022,1.511,4.49h0c.028.076.052.151.08.227l.019.052h0c1.1,3,2.875,4.929,4.991,5.52a5.374,5.374,0,0,0,5.859-2.394c.293-.411.609-.864.944-1.35Z" transform="translate(-150.308 -6.524)" fill="#ed6e32"/>
  </g>
</svg>
